<?xml version="1.0" encoding="UTF-8" standalone="no"?>
<!-- Created with Inkscape (http://www.inkscape.org/) -->

<svg
   xmlns:dc="http://purl.org/dc/elements/1.1/"
   xmlns:cc="http://creativecommons.org/ns#"
   xmlns:rdf="http://www.w3.org/1999/02/22-rdf-syntax-ns#"
   xmlns:svg="http://www.w3.org/2000/svg"
   xmlns="http://www.w3.org/2000/svg"
   xmlns:xlink="http://www.w3.org/1999/xlink"
   xmlns:sodipodi="http://sodipodi.sourceforge.net/DTD/sodipodi-0.dtd"
   xmlns:inkscape="http://www.inkscape.org/namespaces/inkscape"
   width="526.19775"
   height="180.25708"
   id="svg4085"
   version="1.1"
   inkscape:version="0.48.4 r9939"
   sodipodi:docname="Nouveau document 6">
  <defs
     id="defs4087">
    <radialGradient
       inkscape:collect="always"
       xlink:href="#linearGradient3895"
       id="radialGradient4037"
       gradientUnits="userSpaceOnUse"
       gradientTransform="matrix(1.0732092,0,0,1.0732092,-26.161763,-80.483292)"
       cx="182.625"
       cy="43.487186"
       fx="182.625"
       fy="43.487186"
       r="21.875" />
    <linearGradient
       id="linearGradient3895">
      <stop
         id="stop3897"
         offset="0"
         style="stop-color:#ffffff;stop-opacity:1;" />
      <stop
         id="stop3899"
         offset="1"
         style="stop-color:#2c2c2c;stop-opacity:1;" />
    </linearGradient>
    <radialGradient
       inkscape:collect="always"
       xlink:href="#linearGradient3895"
       id="radialGradient4039"
       gradientUnits="userSpaceOnUse"
       gradientTransform="matrix(-1.092016,0,0,-1.092016,369.34747,13.759027)"
       cx="182.625"
       cy="43.487186"
       fx="182.625"
       fy="43.487186"
       r="21.875" />
    <linearGradient
       id="linearGradient4058">
      <stop
         id="stop4060"
         offset="0"
         style="stop-color:#ffffff;stop-opacity:1;" />
      <stop
         id="stop4062"
         offset="1"
         style="stop-color:#2c2c2c;stop-opacity:1;" />
    </linearGradient>
    <linearGradient
       inkscape:collect="always"
       xlink:href="#linearGradient3855"
       id="linearGradient4041"
       gradientUnits="userSpaceOnUse"
       gradientTransform="translate(-1.2376682,-113.3704)"
       x1="198.75"
       y1="96.826462"
       x2="198.75"
       y2="67.8479" />
    <linearGradient
       inkscape:collect="always"
       id="linearGradient3855">
      <stop
         style="stop-color:#ffffff;stop-opacity:1;"
         offset="0"
         id="stop3857" />
      <stop
         style="stop-color:#ffffff;stop-opacity:0;"
         offset="1"
         id="stop3859" />
    </linearGradient>
    <path
       sodipodi:type="arc"
       style="color:#000000;fill:none;stroke:#000000;stroke-width:1;stroke-linecap:round;stroke-linejoin:round;stroke-miterlimit:4;stroke-opacity:1;stroke-dasharray:none;stroke-dashoffset:0;marker:none;visibility:visible;display:inline;overflow:visible;enable-background:accumulate"
       id="path3949"
       sodipodi:cx="187.8101"
       sodipodi:cy="42.248417"
       sodipodi:rx="20.478827"
       sodipodi:ry="20.478827"
       d="M 168.68517,34.925905 A 20.478827,20.478827 0 0 1 184.80845,21.990766"
       transform="translate(-131.27453,41.30772)"
       sodipodi:start="3.5072519"
       sodipodi:end="4.5652855"
       sodipodi:open="true" />
    <path
       sodipodi:end="1.7880956"
       sodipodi:start="0.18390055"
       transform="translate(-117.27191,81.565243)"
       d="m 207.94361,45.993293 a 20.478827,20.478827 0 0 1 -24.5486,16.252355"
       sodipodi:ry="20.478827"
       sodipodi:rx="20.478827"
       sodipodi:cy="42.248417"
       sodipodi:cx="187.8101"
       id="path3965"
       style="color:#000000;fill:none;stroke:#000000;stroke-width:1;stroke-linecap:round;stroke-linejoin:round;stroke-miterlimit:4;stroke-opacity:1;stroke-dasharray:none;stroke-dashoffset:0;marker:none;visibility:visible;display:inline;overflow:visible;enable-background:accumulate"
       sodipodi:type="arc"
       sodipodi:open="true" />
  </defs>
  <sodipodi:namedview
     id="base"
     pagecolor="#ffffff"
     bordercolor="#666666"
     borderopacity="1.0"
     inkscape:pageopacity="0.0"
     inkscape:pageshadow="2"
     inkscape:zoom="0.35"
     inkscape:cx="266.64833"
     inkscape:cy="-321.27926"
     inkscape:document-units="px"
     inkscape:current-layer="layer1"
     showgrid="false"
     fit-margin-top="0"
     fit-margin-left="0"
     fit-margin-right="0"
     fit-margin-bottom="0"
     inkscape:window-width="1280"
     inkscape:window-height="973"
     inkscape:window-x="0"
     inkscape:window-y="25"
     inkscape:window-maximized="1" />
  <metadata
     id="metadata4090">
    <rdf:RDF>
      <cc:Work
         rdf:about="">
        <dc:format>image/svg+xml</dc:format>
        <dc:type
           rdf:resource="http://purl.org/dc/dcmitype/StillImage" />
        <dc:title></dc:title>
      </cc:Work>
    </rdf:RDF>
  </metadata>
  <g
     inkscape:label="Calque 1"
     inkscape:groupmode="layer"
     id="layer1"
     transform="translate(-108.35167,-30.825846)">
    <g
       style="display:inline"
       id="g4021"
       transform="matrix(3.822549,0,0,3.822549,-339.36033,250.02514)">
      <path
         transform="matrix(1.092016,0,0,1.092016,-29.510538,-81.225991)"
         d="m 203.75,43.487186 c 0,11.667016 -9.45798,21.125 -21.125,21.125 -11.66702,0 -21.125,-9.457984 -21.125,-21.125 0,-11.667015 9.45798,-21.125 21.125,-21.125 11.66702,0 21.125,9.457985 21.125,21.125 z"
         sodipodi:ry="21.125"
         sodipodi:rx="21.125"
         sodipodi:cy="43.487186"
         sodipodi:cx="182.625"
         id="path3987"
         style="color:#000000;fill:#c7c7c7;fill-opacity:1;fill-rule:evenodd;stroke:#c7c7c7;stroke-width:0.84657466;stroke-miterlimit:4;stroke-opacity:1;stroke-dasharray:none;marker:none;visibility:visible;display:inline;overflow:visible;enable-background:accumulate"
         sodipodi:type="arc" />
      <path
         style="color:#000000;fill:url(#radialGradient4037);fill-opacity:1;fill-rule:evenodd;stroke:#333333;stroke-width:0.92447311;stroke-miterlimit:4;stroke-opacity:1;stroke-dasharray:none;marker:none;visibility:visible;display:inline;overflow:visible;enable-background:accumulate"
         d="m 169.83222,-56.883174 c -12.74057,0 -23.05405,10.342368 -23.05405,23.082938 0,5.656796 2.02314,10.836517 5.40239,14.849349 4.87023,-4.447353 9.89269,-9.181201 14.9938,-14.213774 6.3178,-6.232917 12.19993,-12.368581 17.59388,-18.229453 -4.02462,-3.422566 -9.23893,-5.48906 -14.93602,-5.48906 z"
         id="path3989"
         inkscape:connector-curvature="0" />
      <path
         inkscape:connector-curvature="0"
         id="path3991"
         d="m 169.91889,-10.658943 c 12.74057,0 23.05405,-10.34237 23.05405,-23.08294 0,-5.656796 -2.02314,-10.836517 -5.40239,-14.849349 -4.87023,4.447353 -9.89269,9.181201 -14.9938,14.213774 -6.3178,6.232917 -12.19993,12.368581 -17.59388,18.229454 4.02462,3.422561 9.23893,5.489061 14.93602,5.489061 z"
         style="color:#000000;fill:url(#radialGradient4039);fill-opacity:1;fill-rule:evenodd;stroke:#333333;stroke-width:0.92447311;stroke-miterlimit:4;stroke-opacity:1;stroke-dasharray:none;marker:none;visibility:visible;display:inline;overflow:visible;enable-background:accumulate" />
      <g
         style="font-size:60px;font-style:normal;font-variant:normal;font-weight:bold;font-stretch:normal;text-align:start;line-height:125%;letter-spacing:0px;word-spacing:0px;writing-mode:lr-tb;text-anchor:start;fill:#050d2a;fill-opacity:1;stroke:#050d2a;stroke-width:2;stroke-miterlimit:4;stroke-opacity:1;stroke-dasharray:none;font-family:Sans;-inkscape-font-specification:Sans Bold"
         id="g3993"
         transform="translate(5.9051893,-111.22755)">
        <path
           d="m 141.18231,62.044124 0,8.55469 c -1.42581,-0.97654 -2.86136,-1.69919 -4.30664,-2.16797 -1.42581,-0.46872 -2.91018,-0.7031 -4.45313,-0.70312 -2.9297,2e-5 -5.21486,0.8594 -6.85547,2.57812 -1.6211,1.69924 -2.43165,4.08205 -2.43164,7.14844 -1e-5,3.06642 0.81054,5.459 2.43164,7.17773 1.64061,1.69923 3.92577,2.54884 6.85547,2.54883 1.6406,1e-5 3.19334,-0.24413 4.65821,-0.73242 1.48434,-0.48827 2.85153,-1.21093 4.10156,-2.16797 l 0,8.58399 c -1.64066,0.60547 -3.31058,1.05468 -5.00977,1.34765 -1.67971,0.3125 -3.36916,0.46875 -5.06836,0.46875 -5.91798,0 -10.54688,-1.51367 -13.88672,-4.54101 -3.33984,-3.04687 -5.00976,-7.27538 -5.00976,-12.68555 0,-5.41013 1.66992,-9.62888 5.00976,-12.65625 3.33984,-3.04684 7.96874,-4.57028 13.88672,-4.57031 1.71873,3e-5 3.40818,0.15628 5.06836,0.46875 1.67966,0.293 3.34958,0.74222 5.00977,1.34765"
           id="path3995"
           inkscape:connector-curvature="0"
           sodipodi:nodetypes="cccccscsccccscscccc"
           style="fill:#050d2a;fill-opacity:1;stroke:#050d2a;stroke-width:2;stroke-miterlimit:4;stroke-opacity:1;stroke-dasharray:none" />
        <path
           d="m 211.63293,70.808296 c -0.918,-0.42966 -1.83597,-0.74216 -2.75391,-0.9375 -0.89846,-0.21482 -1.80667,-0.32224 -2.72461,-0.32227 -2.69533,3e-5 -4.77541,0.86917 -6.24023,2.60743 -1.44533,1.71877 -2.16797,4.18947 -2.16797,7.41211 l 0,15.11718 -10.48828,0 0,-32.8125 10.48828,0 0,5.39063 c 1.34764,-2.14841 2.8906,-3.71091 4.6289,-4.6875 1.75779,-0.99606 3.8574,-1.49411 6.29883,-1.49414 0.35154,3e-5 0.7324,0.0196 1.14258,0.0586 0.41013,0.0196 1.00583,0.0782 1.78711,0.17578 l 0.0293,9.49219"
           id="path3997"
           inkscape:connector-curvature="0"
           sodipodi:nodetypes="ccccscccccccccc"
           style="fill:#050d2a;fill-opacity:1;stroke:#050d2a;stroke-width:2;stroke-linecap:round;stroke-linejoin:round;stroke-miterlimit:4;stroke-opacity:1;stroke-dasharray:none" />
        <path
           d="m 247.87455,77.339889 0,2.98828 -24.52148,0 c 0.25389,2.46095 1.14256,4.30665 2.66601,5.53711 1.52342,1.23048 3.65233,1.84571 6.38672,1.84571 2.20701,0 4.46286,-0.32226 6.76758,-0.9668 2.32419,-0.66406 4.707,-1.66015 7.14844,-2.98828 l 0,8.08594 c -2.48051,0.9375 -4.96097,1.64062 -7.44141,2.10937 -2.4805,0.48828 -4.96096,0.73242 -7.44141,0.73242 -5.93751,0 -10.55665,-1.5039 -13.85742,-4.51172 -3.28125,-3.02733 -4.92188,-7.26561 -4.92187,-12.71484 -1e-5,-5.35154 1.61132,-9.56052 4.83398,-12.62695 3.24218,-3.06638 7.6953,-4.59958 13.35938,-4.59961 5.15622,3e-5 9.27731,1.55276 12.36328,4.6582 3.10543,3.1055 4.65816,7.25588 4.6582,12.45117 m -10.78125,-3.48633 c -3e-5,-1.99216 -0.58596,-3.59372 -1.75781,-4.80468 -1.15237,-1.23045 -2.66604,-1.84568 -4.54102,-1.84571 -2.03127,3e-5 -3.68166,0.5762 -4.95117,1.72852 -1.26955,1.13284 -2.06056,2.77346 -2.37305,4.92187 l 13.62305,0"
           id="path3999"
           inkscape:connector-curvature="0"
           sodipodi:nodetypes="ccccsccccscscccccccccc"
           style="fill:#050d2a;fill-opacity:1;stroke:#050d2a;stroke-width:2;stroke-miterlimit:4;stroke-opacity:1;stroke-dasharray:none" />
      </g>
      <path
         style="color:#000000;fill:url(#linearGradient4041);fill-opacity:1;fill-rule:evenodd;stroke:none;stroke-width:1;marker:none;visibility:visible;display:inline;overflow:visible;enable-background:accumulate"
         d="m 137.01233,-50.995403 c -5.91798,3e-5 -10.53516,1.51566 -13.875,4.5625 -3.33984,3.02737 -5.03125,7.24612 -5.03125,12.65625 0,0.408007 0.0435,0.792934 0.0625,1.1875 3.6362,1.169281 7.5266,2.22017 11.59375,3.1875 -0.47426,-1.264305 -0.71876,-2.716423 -0.71875,-4.375 -1e-5,-3.06639 0.8164,-5.45701 2.4375,-7.15625 1.64061,-1.71872 3.91405,-2.56248 6.84375,-2.5625 1.54295,2e-5 3.04294,0.21878 4.46875,0.6875 1.44528,0.46878 2.85544,1.21096 4.28125,2.1875 l 0,-8.5625 c -1.66019,-0.60543 -3.32034,-1.05075 -5,-1.34375 -1.66018,-0.31247 -3.34377,-0.46872 -5.0625,-0.46875 z m 99.75,0 c -5.66408,3e-5 -10.13282,1.52737 -13.375,4.59375 -3.22266,3.06643 -4.81251,7.27346 -4.8125,12.625 -1e-5,2.906177 0.47297,5.470181 1.40625,7.6875 3.46474,-0.501839 6.82941,-1.051086 10.09375,-1.6875 -0.42031,-0.90287 -0.68961,-1.93386 -0.8125,-3.125 l 14.21875,0 c 3.64357,-1.010777 7.07691,-2.130589 10.3125,-3.3125 -0.0632,-5.044798 -1.64661,-9.084037 -4.6875,-12.125 -3.08597,-3.10544 -7.18753,-4.65622 -12.34375,-4.65625 z m -22.1875,0.84375 c -2.44143,3e-5 -4.52346,0.50394 -6.28125,1.5 -1.7383,0.97659 -3.30861,2.53909 -4.65625,4.6875 l 0,-5.40625 -10.46875,0 0,25.6875 c 3.5444,-0.124414 7.04185,-0.335717 10.46875,-0.59375 l 0,-7.375 c 0,-3.22264 0.74217,-5.68748 2.1875,-7.40625 1.46482,-1.73826 3.55467,-2.62497 6.25,-2.625 0.91794,3e-5 1.82029,0.09768 2.71875,0.3125 0.91794,0.19534 1.832,0.50784 2.75,0.9375 l -0.0312,-9.46875 c -0.78128,-0.09758 -1.37112,-0.1679 -1.78125,-0.1875 -0.41018,-0.039 -0.80471,-0.06247 -1.15625,-0.0625 z m 22.125,6.125 c 1.87498,3e-5 3.37888,0.6133 4.53125,1.84375 1.17185,1.21096 1.78122,2.82034 1.78125,4.8125 l -13.625,0 c 0.31249,-2.14841 1.10545,-3.80466 2.375,-4.9375 1.26951,-1.15232 2.90623,-1.71872 4.9375,-1.71875 z"
         id="path4001"
         inkscape:connector-curvature="0"
         sodipodi:nodetypes="ccsccscccccccccsccccccccccccccsccccccccccccc" />
      <text
         sodipodi:linespacing="125%"
         id="text4003"
         style="font-size:9px;font-style:normal;font-variant:normal;font-weight:bold;font-stretch:normal;text-align:start;line-height:125%;letter-spacing:0px;word-spacing:0px;writing-mode:lr-tb;text-anchor:start;fill:#050d2a;fill-opacity:1;stroke:#9b9b9b;stroke-width:0.30000001;stroke-miterlimit:4;stroke-opacity:1;stroke-dasharray:none;font-family:Sans;-inkscape-font-specification:Sans Bold"
         xml:space="preserve"
         transform="translate(119.18483,-113.3704)"><textPath
           id="textPath4005"
           xlink:href="#path3949"><tspan
   id="tspan4007"
   style="font-size:9px;font-style:normal;font-variant:normal;font-weight:bold;font-stretch:normal;text-align:start;line-height:125%;writing-mode:lr-tb;text-anchor:start;fill:#050d2a;fill-opacity:1;stroke:#9b9b9b;stroke-width:0.30000001;stroke-miterlimit:4;stroke-opacity:1;stroke-dasharray:none;font-family:Sans;-inkscape-font-specification:Sans Bold">tiny</tspan></textPath></text>
      <text
         sodipodi:linespacing="125%"
         id="text4009"
         style="font-size:9px;font-style:normal;font-variant:normal;font-weight:bold;font-stretch:normal;text-align:start;line-height:125%;letter-spacing:0px;word-spacing:0px;writing-mode:lr-tb;text-anchor:start;fill:#050d2a;fill-opacity:1;stroke:#9b9b9b;stroke-width:0.30000001;stroke-miterlimit:4;stroke-opacity:1;stroke-dasharray:none;font-family:Sans;-inkscape-font-specification:Sans Bold"
         xml:space="preserve"
         transform="translate(95.482919,-161.59449)"><textPath
           id="textPath4011"
           xlink:href="#path3965"><tspan
   id="tspan4013"
   style="font-size:9px;font-style:normal;font-variant:normal;font-weight:bold;font-stretch:normal;text-align:start;line-height:125%;writing-mode:lr-tb;text-anchor:start;fill:#050d2a;fill-opacity:1;stroke:#9b9b9b;stroke-width:0.30000001;stroke-miterlimit:4;stroke-opacity:1;stroke-dasharray:none;font-family:Sans;-inkscape-font-specification:Sans Bold">micro</tspan></textPath></text>
    </g>
  </g>
</svg>
